<?xml version="1.0" standalone="no"?>
<!DOCTYPE svg PUBLIC "-//W3C//DTD SVG 20010904//EN"
 "http://www.w3.org/TR/2001/REC-SVG-20010904/DTD/svg10.dtd">
<svg version="1.0" xmlns="http://www.w3.org/2000/svg"
 width="651.000000pt" height="152.000000pt" viewBox="0 0 651.000000 152.000000"
 preserveAspectRatio="xMidYMid meet">

<g transform="translate(0.000000,152.000000) scale(0.100000,-0.100000)"
fill="#000000" stroke="none">
<path d="M0 760 l0 -760 3255 0 3255 0 0 760 0 760 -3255 0 -3255 0 0 -760z
m560 133 l0 -378 -133 -67 -132 -67 -3 432 c-1 238 0 438 3 445 3 9 40 12 135
12 l130 0 0 -377z m1238 240 l3 -133 -436 0 -435 0 0 128 c0 71 3 132 7 135 3
4 198 6 432 5 l426 -3 3 -132z m482 -443 l0 -580 -135 0 -135 0 0 510 0 509
133 69 c72 38 133 70 135 71 1 0 2 -260 2 -579z m1611 326 c183 -39 289 -159
313 -353 19 -156 -20 -313 -100 -402 -88 -98 -200 -131 -451 -131 -134 0 -164
3 -177 16 -14 13 -16 67 -16 434 0 367 2 421 16 434 21 21 317 22 415 2z m633
8 c14 -5 16 -30 16 -175 l0 -169 170 0 170 0 0 169 c0 193 -6 181 97 181 91 0
83 43 83 -450 0 -493 8 -450 -83 -450 -104 0 -97 -14 -97 201 l0 189 -170 0
-170 0 0 -189 c0 -163 -2 -190 -16 -195 -20 -8 -112 -8 -141 0 l-23 6 0 438
c0 409 1 439 18 443 26 7 128 8 146 1z m900 0 c14 -5 16 -54 16 -444 0 -390
-2 -439 -16 -444 -20 -8 -112 -8 -141 0 l-23 6 0 438 c0 409 1 439 18 443 26
7 128 8 146 1z m692 -34 c58 -30 74 -44 101 -88 77 -129 40 -308 -81 -389 -63
-43 -102 -53 -218 -60 l-98 -6 0 -152 c0 -150 0 -153 -22 -159 -29 -7 -107 -7
-135 0 l-23 6 0 426 c0 391 1 427 17 445 17 18 30 19 204 16 l186 -4 69 -35z
m-4616 -440 l0 -440 -135 0 -135 0 0 375 0 375 128 64 c70 36 130 65 135 65 4
1 7 -197 7 -439z m1501 -38 c3 -17 3 -47 0 -65 l-7 -32 -158 -3 c-108 -2 -163
1 -172 9 -17 14 -19 100 -2 117 9 9 56 12 172 10 l160 -3 7 -33z m-2003 -269
l3 -133 -356 0 -355 0 0 128 c0 71 3 132 7 135 4 4 162 6 352 5 l346 -3 3
-132z"/>
<path d="M3640 580 l0 -313 98 5 c108 6 153 21 198 66 60 59 91 167 80 280 -8
89 -24 136 -64 182 -53 63 -101 82 -214 88 l-98 5 0 -313z"/>
<path d="M5820 739 l0 -152 78 5 c120 7 162 47 162 154 0 102 -51 144 -175
144 l-65 0 0 -151z"/>
</g>
</svg>
